<svg xmlns="http://www.w3.org/2000/svg" xmlns:xlink="http://www.w3.org/1999/xlink" width="468" height="468" viewBox="0 0 468 468">
    <defs>
        <linearGradient id="1vzcic406a" x1="50%" x2="50%" y1="0%" y2="125.346%">
            <stop offset="0%" stop-color="#AEDEF3"/>
            <stop offset="55%" stop-color="#80CCEC"/>
            <stop offset="100%" stop-color="#80CCEC"/>
        </linearGradient>
        <path id="7lubgdcqvb" d="M355.15 247.061c0 1.153 0 2.3-.04 3.446-.492 27.77-7.528 55.034-20.535 79.575-2.677 5.052-5.583 9.95-8.719 14.692-1.722 2.607-3.511 5.166-5.366 7.678-.752 1.008-1.51 2.011-2.274 3.011l-13.756 14.661-9.655 10.292-14.283 11.315c-4.826 3.446-9.825 6.644-14.977 9.58h-.037c-6.427 3.678-13.081 6.946-19.921 9.784l-.224.093c-3.358 1.388-6.768 2.675-10.23 3.86-54.245 18.573-114.12 9.815-160.773-23.516C27.706 358.202.013 304.398 0 247.062 0 148.988 79.501.62 177.574.62c2.226 0 4.442-.082 6.649 0 85.043 3.13 154.815 135.052 168.489 216.964 1.627 9.742 2.442 19.601 2.438 29.477z"/>
    </defs>
    <g fill="none" fill-rule="evenodd">
        <g>
            <g>
                <g>
                    <path fill="url(#1vzcic406a)" fill-rule="nonzero" d="M355.147 247.061c0 1.153 0 2.3-.037 3.446-.492 27.77-7.528 55.034-20.535 79.575-2.677 5.052-5.583 9.95-8.719 14.692-1.722 2.607-3.511 5.166-5.366 7.678-.752 1.008-1.51 2.011-2.274 3.011l-13.756 14.661-9.655 10.292-14.283 11.315c-4.826 3.446-9.825 6.644-14.977 9.58h-.037c-6.427 3.678-13.081 6.946-19.921 9.784l-.224.093c-3.358 1.388-6.768 2.675-10.23 3.86-54.245 18.573-114.12 9.815-160.773-23.516C27.706 358.202.013 304.398 0 247.062 0 148.988 79.501 69.487 177.574 69.487c88.033 0 161.109 64.06 175.138 148.096 1.627 9.742 2.442 19.601 2.435 29.477z" opacity=".5" transform="translate(-732 -681) translate(732 681) translate(56.16 21.528)"/>
                    <g transform="translate(-732 -681) translate(732 681) translate(56.16 21.528)">
                        <mask id="3e5tztydbc" fill="#fff">
                            <use xlink:href="#7lubgdcqvb"/>
                        </mask>
                        <g mask="url(#3e5tztydbc)">
                            <g>
                                <path fill="#CAAB93" d="M46.58 332.598c5.923 11.253 8.426 22.995 13.737 34.781 1.605 3.375 2.863 6.905 3.755 10.534 2.19 6.503 3.564 13.253 4.09 20.095.248 2.479.433 4.908.576 7.114.188 1.774.06 3.568-.378 5.298-.388 1.327-1.761 2.104-3.098 1.754-.638-.203-1.189-.616-1.562-1.172-.458-.62-.91-1.239-1.363-1.958.738 2.446 1.69 4.822 2.844 7.102 1.86 3.098 3.52 2.534 3.44 4.907 0 1.128-1.562 2.479-3.564 2.566-2.176-.076-4.252-.936-5.843-2.423-.8-.806-1.927-2.026-3.049-3.272l-.52-.582c-1.723-1.915-3.322-3.756-3.6-4.072l-.031-.037.037.044c.62.73 7.535 8.836 7.522 10.682-.188 1.434-1.332 2.552-2.77 2.708-3.327 0-5.905-3.718-9.672-6.487 0 0 2.62 2.968 1.716 4.22-.905 1.251-3.265 3.519-8.204-2.801-4.158-5.31-9.914-22.277-9.914-22.277-.856-4.517-1.779-11.587-2.423-17.288-.13-.502-.26-1.023-.372-1.568-1.202-6.252-.843-12.852-1.345-19.259s-.564-14.456-2.757-20.107l22.747-8.502zm206.517-2.974l22.927 8.55c-2.157 5.677-2.188 13.683-2.69 20.09-.501 6.407-.154 13.013-1.344 19.265-.112.564-.248 1.06-.39 1.561-.62 5.707-1.55 12.79-2.423 17.307l-.031.1c-.508 1.48-5.93 17.108-9.915 22.17-4.957 6.315-7.3 4.065-8.204 2.795-.905-1.27 1.716-4.238 1.716-4.238-3.767 2.788-6.345 6.494-9.69 6.494-1.52-.052-2.778-1.2-2.969-2.708 0-.837 1.4-2.95 3.005-5.081l.515-.676c1.803-2.342 3.687-4.548 3.996-4.914l-.05.062c-.668.769-4.783 5.478-6.94 7.66l-.191.185c-1.582 1.505-3.662 2.374-5.844 2.442-1.92-.08-3.563-1.438-3.563-2.566-.062-2.373 1.624-1.797 3.452-4.92 1.16-2.276 2.118-4.65 2.863-7.095-.418.674-.87 1.326-1.357 1.952-.359.543-.88.96-1.488 1.19-1.34.34-2.707-.44-3.098-1.766-.432-1.73-.56-3.524-.378-5.298.155-2.188.347-4.598.62-7.101.507-6.865 1.872-13.639 4.065-20.164.884-3.63 2.14-7.16 3.749-10.534 5.298-11.773 7.801-23.547 13.725-34.775l-.068.013zM169.89.762l7.188 13.515c-18.038 14.041-35.872 44.07-35.872 44.07-10.534-17.729-22.927-33.121-36.844-45.644l5.372-11.94h60.156z" transform="translate(34.7 208.203)"/>
                                <path stroke="#296080" stroke-width="1.463" d="M197.669 29.973c2.292 6.618 4.029 13.417 5.193 20.324l-24.669 8.223" transform="translate(34.7 208.203)"/>
                                <path fill="#009FDC" fill-rule="nonzero" d="M177.406 7.38s47.162 15.758 54.27 17.542c7.107 1.785 18.98 6.017 18.98 6.017s5.576-.155 7.045 2.41c2.739 4.766 4.288 15.306 3.63 17.772-5.44 20.065-25.213 86.51-31.601 111.847-1.86 7.492-6.55 34.038-6.048 48.953.39 11.897 2.69 27.11 11.55 54.61 8.861 27.5 19.414 75.597 19.414 75.597s-180.994 12.083-216.259 2.479c0 0 21.57-87.055 25.666-98.921 7.66-22.165-1.797-77.166-1.797-77.166S47.546 77.686 43.81 70.962c-4.61-8.24-6.097-26.812-6.097-26.812.15-2.009 1.191-3.845 2.838-5.006 1.648-1.16 3.728-1.522 5.67-.986 6.262-3.691 12.765-6.96 19.463-9.784 26.211-11.272 34.7-18.93 34.7-18.93s39.522 87.767 77.023-2.064z" transform="translate(34.7 208.203)"/>
                                <path fill="#098FC1" fill-rule="nonzero" d="M226.724 66.21s-52.243 95.37-79.52 125.076c0 0-9.58 9.24-7.033-4.38l76.156-149.491 8.396 6.723c3.42 4.548 7.61 6.376 6.252 11.897-1.117 3.51-2.54 6.914-4.25 10.175z" transform="translate(34.7 208.203)"/>
                                <path fill="#098FC1" fill-rule="nonzero" d="M61.048 70.262s47 91.74 72.233 121.037c0 0 8.86 9.133 6.5-4.338L69.345 39.323l-7.814 8.056c-3.129 4.504-5.719 7.33-4.443 12.77 1.028 3.479 2.353 6.862 3.96 10.113z" transform="translate(34.7 208.203)"/>
                                <path fill="#098FC1" fill-rule="nonzero" d="M179.872 51.908s-30.01 108.687-43.511 85.983C122.858 115.187 99.968 54.19 99.968 54.19c-8.52 9.567-6.878 22.357-6.878 22.357 3.576 35.394 41.994 108.767 44.28 112.708 2.287 3.941 4.115 0 4.115 0 20.449-24.737 39.267-118.353 39.267-118.353 2.467-3.706-.88-18.993-.88-18.993z" transform="translate(34.7 208.203)"/>
                                <path fill="#009FDC" fill-rule="nonzero" d="M103.222 5.1c-9.485 5.64-18.277 12.37-26.2 20.052-9.474 9.294-17.288 15.088-23.373 25.95-2.28 4.084 7.38 18.764 7.38 18.764s27.748 53.705 34.391 61.661c3.297 3.954 40.277 62.535 43.89 60.348 2.392-1.561-5.738-13.446-21.18-52.466-13.83-34.942-18.756-80.177-18.756-80.177L103.222 5.1z" transform="translate(34.7 208.203)"/>
                                <path fill="#009FDC" fill-rule="nonzero" d="M176.186 5.1c9.483 5.642 18.275 12.372 26.198 20.052 9.55 9.294 17.289 15.088 23.355 25.95.824 1.475.093 4.338-1.171 7.4-1.786 3.96-3.879 7.777-6.259 11.413 0 0-27.741 53.7-34.384 61.662-3.297 3.953-40.277 62.535-43.896 60.348-2.404-1.568 5.725-13.447 21.167-52.472 13.85-34.974 18.757-80.17 18.757-80.17L176.186 5.1zM246.002 206.152l-5.726 139.756 12.945 1.952h.216c7.979 1.264 15.753 3.583 23.12 6.897l7.813 3.439 4.896-39.51 3.761-30.362c.985-7.956 1.66-15.962 2.032-23.968l2.74-50.297c-4.24-59.109-26.856-134.378-29.49-141.467-2.887-7.82-6.252-27.797-8.111-32.928-1.686-4.846-2.299-5.205-25.586 31.268-10.13 15.918-3.717 85.27-3.717 85.27s7.435 24.439 9.115 32.333l5.992 17.617z" transform="translate(34.7 208.203)"/>
                                <path fill="#EDF3F7" fill-rule="nonzero" d="M93.338 31.441c-1.933 13.013-2.23 13.162.78 21.291 11.037 30.004 39.491 84.112 44.77 97.905.219.662.824 1.12 1.52 1.15.696.027 1.338-.378 1.61-1.02 6.94-14.388 20.678-37.526 25.406-52.224 2.924-9.065 11.067-28.386 11.153-30.704 0-1.561 2.082-17.635 2.268-36.677 0-5.422-.62-21.068-.75-23.794 0-1.24-3.333-3.501-4.548-3.52-4.282 0-9.505 27.345-21.024 27.314-8.676 0-19.65.62-28.139.62-14.066 0-24.866-26.143-24.885-25.722-.019.422-4.282.217-5.249 5.33-.563 3.37-2.348 16.24-2.912 20.051z" transform="translate(34.7 208.203)"/>
                                <path fill="#0F3042" fill-rule="nonzero" d="M109.629 2.287s-3.799-.459-6.24 1.666c-2.442 2.126-3.098 4.084-2.23 5.46 4.312 6.878 7.725 14.281 10.155 22.028l1.14 14.252 18.763 26.41s13.348 23.689 13.422 22.53c.074-1.159 12.51-33.002 12.51-33.002s15.628 2.72 25.37 4.22c9.74 1.499 11.773 6.94 16.569 4.064 4.796-2.875 5.013-9.381 5.013-9.381l-6.816-10.237 15.398-7.175c5.13-2.392 22.685-32.842 22.685-32.842s-21.687 11.154-27.995 10.615c-6.308-.54-30.029 1.078-31.826 1.282-1.797.205-6.723.422-6.723.422l5.422-15.634c1.568-4.58 1.859-5.13-1.24-6.816h-2.936c-2.55 7.762-4.842 13.485-6.879 17.17l-6.252 8.347s-27.308 2.764-29.278 1.314c-14.45-10.702-18.032-24.693-18.032-24.693z" transform="translate(34.7 208.203)"/>
                                <path fill="#D2773A" fill-rule="nonzero" d="M124.135 61.507c3.337 1.302 6.75 2.405 10.218 3.302l1.097.292c7.181 1.859 14.561 3.222 18.818 3.94-.867 2.244-1.858 4.81-2.869 7.436-2.36-.421-5.105-.979-7.875-1.58l-1.16-.248c-4.145-.91-8.247-1.859-11.153-2.577l-6.735-9.481-.341-1.084zM163.854 45.433c4.653 1.858 8.545 5.228 11.049 9.567 2.217 3.782 4.702 7.4 7.436 10.826-1.86-.292-3.929-.62-6.06-.967-1.481-3.359-4.53-9.295-8.676-12.108-5.874-4.053-8.353-6.252-8.44-6.928-.086-.675 1.172-2.032 4.691-.39zM169.301 21.217l-.477 1.375s4.926-.216 6.723-.42c.31-.038 1.24-.112 2.677-.212-2.224.663-7.907 2.56-9.245 4.883-1.673 2.906-1.562 2.566 2.441 2.894 4.003.328 13.013-.47 22.116 2.33 7.758 2.392 21.657 3.65 25.542 3.966-.905 1.239-1.766 2.38-2.566 3.364l-2.732 2.485s-12.505-1.282-14.816-2.478c-2.311-1.196-9.103-5.831-14.872-5.286-1.859.174-4.201.44-6.618.65l-.972.081c-4.852.372-9.698.422-10.875-1.109-1.86-2.392-3.099-2.937-2.138-4.908.96-1.97 3.5-7.095 3.5-7.095l2.312-.52z" transform="translate(34.7 208.203)"/>
                                <path fill="#D2773A" fill-rule="nonzero" d="M169.89.762l2.54.068-.427 21.267-.688 1.989h.62v.62c-2.093.624-4.237 1.06-6.407 1.3-2.301.036-4.344 1.48-5.144 3.638l-1.028-2.478h.056l6.252-8.347c3.067-5.521 2.02-12.04 4.207-18.026v.044l.019-.075zM118.508 17.672c1.148 1.618 2.413 3.149 3.786 4.58-1.391-.125-2.794.065-4.102.557-3.308.913-6.09 3.156-7.683 6.197-.603-1.76-1.258-3.5-1.965-5.218 1.57-1.58 3.265-3.031 5.07-4.337 1.427-.969 3.077-1.562 4.795-1.723l.1-.056z" transform="translate(34.7 208.203)"/>
                                <g fill-rule="nonzero">
                                    <path fill="#499DD4" d="M11.154 38.734s-8.21.732-9.382-.656C.974 36.826.521 35.385.46 33.9c0 0 2.478-10.379 8.631-13.694l2.17-1.562c-.59 6.682-.626 13.402-.106 20.09zM33.883 67.319L26.88 91.578 12.864 64.654z" transform="translate(34.7 208.203) translate(118.353 7.436)"/>
                                    <path fill="#142F40" d="M56.27 14.562s-12.956 3.296-9.536 6.754c3.42 3.458 25.152 4.25 25.555 4.393l23.701 6.767L121.142.18 56.27 14.562z" transform="translate(34.7 208.203) translate(118.353 7.436)"/>
                                </g>
                                <path fill="#296080" fill-rule="nonzero" d="M129.104 25.232s3.347-2.559 14.066-2.782c4.693-.246 9.398-.126 14.073.36l3.674 16.637-11.116 21.688-20.84-11.73c-.618-6.008-.8-12.053-.544-18.088l.687-6.085z" transform="translate(34.7 208.203)"/>
                                <g>
                                    <path d="M29.483 1.332S5.41-1.685 2.708 1.6C.006 4.883.359 25.734.359 25.734l21.794 13.05 9.45-21.068-2.12-16.384z" transform="translate(34.7 208.203) translate(127.648 22.307)"/>
                                    <path fill="#E8F0F1" fill-rule="nonzero" d="M10.93 19.531c.229-4.449 3.07-8.341 7.238-9.914 3.972-1.363 8.11-2.182 12.3-2.435l-1.016-4.957s-9.722 0-13.787 3.569C11.6 9.363 3.99 19.754 2.584 19.984 1.177 20.213 1.239 21 1.239 21l-.88 4.771s7.021-1.295 7.913-2.658c.893-1.363 2.659-3.582 2.659-3.582z" transform="translate(34.7 208.203) translate(127.648 22.307)"/>
                                    <path fill="#499DD4" fill-rule="nonzero" d="M.36 25.734c4.452-5.098 10-9.123 16.228-11.773 4.792-2.106 9.898-3.41 15.113-3.86l2.38 7.503-12.505 25.19L.36 25.733z" transform="translate(34.7 208.203) translate(127.648 22.307)"/>
                                </g>
                                <path fill="#009FDC" fill-rule="nonzero" d="M58.167 191.565c1.66-7.814 9.115-32.333 9.115-32.333s6.364-69.29-3.78-85.264C40.228 37.408 39.614 37.786 37.848 42.62c-1.735 5.112-5.143 25.139-8.055 32.928C27.14 82.662 4.536 157.906.335 217.033l2.763 50.297c.356 8.023 1.008 16.016 1.958 23.98l8.675 69.854 7.814-3.452c7.355-3.299 15.111-5.617 23.07-6.896h.173l12.957-1.97-5.694-139.77 6.116-17.51z" transform="translate(34.7 208.203)"/>
                                <path fill="#098FC1" fill-rule="nonzero" d="M128.714 209.077c.401.654.615 1.407.62 2.175 0 2.364-1.917 4.281-4.282 4.281-.772 0-1.53-.215-2.187-.62.903 1.538 2.668 2.35 4.423 2.038 1.756-.313 3.13-1.685 3.447-3.44.317-1.755-.492-3.521-2.027-4.428l.006-.006zM128.714 234.953c.808 1.315.837 2.965.077 4.307-.76 1.343-2.19 2.166-3.733 2.15-.771-.006-1.527-.22-2.187-.62.909 1.53 2.672 2.333 4.422 2.016 1.75-.316 3.12-1.686 3.437-3.436.317-1.75-.487-3.514-2.016-4.423v.006z" transform="translate(34.7 208.203)"/>
                                <g>
                                    <path fill="#DDDFDF" d="M30.09 7.238c.198-1.191-.606-2.317-1.797-2.516L2.931.477C1.741.283.617 1.086.415 2.274c-.047.295-.034.596.037.886.056.22.149.43.273.62l.155.774c.048.146.104.289.167.428.761 1.756 2.303 3.053 4.164 3.501 4.059.985 8.459 5.75 8.459 5.75s5.707-3.098 9.858-2.689c1.905.185 3.787-.535 5.081-1.946.107-.113.206-.233.298-.359l.403-.682c.413-.334.69-.808.78-1.332" transform="translate(34.7 208.203) translate(178.46 74.978)"/>
                                    <path fill="#39374E" d="M14.574 13.595c-.299 0-.597-.025-.892-.074-2.349-.397-4.003-2.219-3.718-4.071.26-1.574 1.915-2.72 3.922-2.72.301 0 .602.025.899.074 2.342.396 3.997 2.218 3.718 4.07-.267 1.575-1.915 2.721-3.929 2.721" transform="translate(34.7 208.203) translate(178.46 74.978)"/>
                                    <path fill="#DDDFDF" d="M13.911 6.327c-2.175 0-4.021 1.239-4.337 3.055-.347 2.07 1.462 4.108 4.027 4.542.318.048.64.073.96.074 2.176 0 4.029-1.24 4.338-3.055.347-2.076-1.456-4.108-4.027-4.536-.318-.054-.639-.081-.96-.08m0 .811c.277-.002.555.021.83.069 1.01.15 1.938.639 2.633 1.388.567.587.834 1.402.725 2.212-.23 1.382-1.71 2.38-3.526 2.38-.276.001-.552-.022-.824-.069-2.125-.353-3.637-1.97-3.365-3.6.236-1.382 1.717-2.38 3.526-2.38" transform="translate(34.7 208.203) translate(178.46 74.978)"/>
                                    <g fill="#DDDFDF">
                                        <path d="M6.246.514C3.507.056.98 1.506.601 3.755.223 6.005 2.144 8.192 4.89 8.657c2.745.464 5.273-.998 5.651-3.241C10.918 3.173 8.991.973 6.246.514m-.1.62c2.393.397 4.084 2.268 3.768 4.17-.316 1.903-2.522 3.098-4.92 2.72-2.398-.377-4.09-2.274-3.773-4.17.316-1.896 2.528-3.098 4.926-2.72" transform="translate(34.7 208.203) translate(178.46 74.978) translate(8.675 5.577)"/>
                                    </g>
                                </g>
                            </g>
                        </g>
                        <g mask="url(#3e5tztydbc)">
                            <g>
                                <path fill="#CAAB93" d="M114.17 106.667c-2.04-.284-4.097.388-5.576 1.822.149-7.988-.192-13.28-.192-13.28-.738-27.049-22.879-48.593-49.938-48.593-27.06 0-49.2 21.544-49.938 48.593 0 0-.322 4.958-.192 12.53-1.486-1.45-3.556-2.135-5.614-1.86-4.139.943-2.825 15.108-.328 19.266 2.162 3.718 4.17 8.551 8.44 10.614 1.951 11.365 5.34 22.853 11.153 31.733 2.66 4.106 5.75 7.916 9.22 11.364-.619 8.198-2.038 14.977-3.835 22.085 0 0 14.996 4.957 30.363 4.957 15.826 0 32.036-4.914 32.036-4.883 0 .031-2.324-7.095-2.82-11.451-.44-3.78-.793-7.436-1.09-10.726 3.433-3.46 6.497-7.27 9.14-11.365 5.682-8.675 9.053-19.903 11.017-30.84 4.251-1.995 6.283-6.934 8.52-10.664 2.46-4.189 3.774-18.36-.365-19.302z" transform="translate(117.734 8.675)"/>
                                <g>
                                    <path fill="#000" fill-rule="nonzero" d="M1.029 2.9C1.685 1.227 3.024.149 4.245.67c1.958.929.768 2.558 0 4.182.833-.174 1.672.271 1.995 1.06.62 1.673-.837 4.684-2.863 4.337C1.03 9.828-.13 6.153 1.03 2.9zm41.256 0C42.942 1.227 44.28.149 45.501.67c1.964.929.775 2.558 0 4.182.83-.177 1.665.27 1.977 1.06.657 1.673-.818 4.684-2.844 4.337-2.349-.421-3.508-4.096-2.349-7.349z" transform="translate(117.734 8.675) translate(32.842 114.016)"/>
                                </g>
                                <path fill="#000" fill-rule="nonzero" d="M85.84 178.788c.292 3.309.62 6.946 1.085 10.726-20.84 15.355-39.559.62-41.2-.353l.619.31c3.554 1.656 7.375 2.667 11.284 2.987l.836.055h.124c1.363-.055 14.06-.675 27.252-13.725zm-24.395-60.304s4.498 17.158 6.494 22.158c1.995 5-1.543 12.207-14.122 5.503l.198-.713c1.568 1.234 3.507 1.902 5.503 1.896 1.419.055 2.827-.26 4.09-.91 2.527-1.345 3.209-4.338 1.734-7.95-2.206-5.404-2.274-14.253-4.009-19.594l.112-.39zm-17.17-44.535l1.951 1.24c15.12 9.536 34.948 20.318 53.804 25.083l1.24.31c.29.88.533 1.735.793 2.627 1.69 6.084 2.95 12.28 3.767 18.54-1.27-8.117-7.175-17.059-7.175-17.059-19.178-6.494-51.394-28.684-54.38-30.74z" opacity=".1" transform="translate(117.734 8.675)"/>
                                <g>
                                    <g>
                                        <g fill="#CAE9F4">
                                            <path d="M102.98 3.57c.155-.247.167-.556.032-.813-.136-.257-.398-.423-.688-.434-.29-.011-.565.133-.72.379-4.202 6.946-7.78 14.251-10.689 21.83-4.957 1.537-28.194 8.514-39.695 8.514-12.139 0-34.192-8.371-39.081-10.286C9.66 15.82 6.073 7.157 1.71.824 1.455.454.95.362.58.617c-.37.255-.463.76-.208 1.13 4.684 6.817 8.483 16.39 10.912 23.485l1.456 30.283c-3.55-6.197-7.87-15.702-8.396-26.2-.006-.215-.1-.42-.26-.565-.161-.145-.374-.218-.59-.203-.214.01-.416.105-.56.265-.145.159-.22.37-.208.584.62 12.393 6.377 23.491 10.175 29.54l.112 2.323s16.73 21.303 38.176 21.303c23.089 0 40.693-26.645 40.693-26.645v-2.261c4.827-10.318 7.516-22.63 7.659-23.293.072-.288-.018-.592-.236-.794-.218-.201-.528-.268-.81-.174-.28.095-.488.335-.54.627-1.522 6.66-3.553 13.194-6.073 19.544V26.639c4.164-11.935 11.017-22.927 11.098-23.064" transform="translate(117.734 8.675) translate(6.816 107.2)"/>
                                        </g>
                                        <path fill="#142D37" fill-opacity=".1" d="M23.262 47.168s24.166 6.952 53.333-1.493c0 0-26.1 17.678-53.333 1.493M24.786 60.707s22.692 4.883 51.828-3.569c0 0-27.785 15.807-51.828 3.57" transform="translate(117.734 8.675) translate(6.816 107.2)"/>
                                    </g>
                                </g>
                                <path fill="#260E0A" d="M82.253 18.466s25.573-4.722 27.884 20.256c.83 9.04-.694 14.934-3 18.831.625 1.473 1.167 2.979 1.624 4.511-.148-.26-.26-.402-.297-.47l.279.489c.011.149.051.294.117.427l.044.137c.724 2.502 1.165 5.077 1.313 7.677.125 1.54-.074 3.09-.582 4.548-.291.82-.867 1.506-1.624 1.934.54 1.636.98 3.304 1.314 4.994.012.06.012.12 0 .18.576 2.647 1.004 5.324 1.283 8.018.44 4.116.565 8.259.372 12.393.021.76-.022 1.521-.13 2.274-.414 5.984-1.501 11.902-3.241 17.642l-1.413 2.478c-.025-.365-.068-.73-.13-1.09-.094-.448-.127-.907-.1-1.363v-.515c-.817-6.244-2.076-12.423-3.767-18.49-.167-.62-.334-1.177-.514-1.76l-.279-.867C82.029 96.04 61.68 85.066 46.257 75.294l-1.952-1.24c-.08-.046-.156-.102-.223-.167-8.979 2.212-19.023 5.961-24.036 11.817-10.014 11.687-8.118 48.698-8.118 48.698s-14.506-33.956-9.524-62.349c0 0 3.718-12.43 12.338-17.97-.092-1.303.19-2.606.811-3.755-5.019-8.96-13.49-30.79 14.574-42.737 35.649-15.095 62.82-3 52.126 10.875zm0 84.78c.551.101 1.094.246 1.623.434.561.15 1.106.357 1.624.62.52.26 1.072.49 1.623.762l1.475.991c.505.317.974.687 1.4 1.103l1.326 1.184c.85.861 1.624 1.784 2.404 2.677l-1.003 1.072c-.781-.812-1.53-1.624-2.343-2.479l-1.239-1.072c-.404-.368-.844-.694-1.314-.973l-1.381-.861c-.465-.242-.955-.434-1.444-.62-.466-.238-.962-.413-1.475-.52-.491-.163-.998-.277-1.512-.341-2.05-.33-4.148-.158-6.116.502-2.006.667-3.862 1.72-5.465 3.098l-1.301-1.859c1.84-1.522 3.972-2.654 6.264-3.327 2.224-.681 4.577-.821 6.866-.41l-.012.02zm-42.663.341c2.306.676 4.45 1.819 6.295 3.359l-1.301 1.859c-1.604-1.377-3.46-2.429-5.465-3.099-1.97-.659-4.07-.833-6.123-.508-.511.067-1.015.18-1.505.341-.517.113-1.019.287-1.494.52-.47.211-.96.41-1.443.651l-1.364.862c-.47.28-.912.606-1.32.972l-1.276 1.072c-.8.794-1.543 1.624-2.324 2.479l-1.004-1.072c.812-.892 1.624-1.816 2.398-2.677l1.351-1.183c.421-.42.889-.79 1.395-1.103l1.462-.992c.514-.279 1.053-.502 1.617-.762.519-.261 1.063-.469 1.624-.62.53-.186 1.072-.333 1.623-.44 2.283-.439 4.638-.322 6.866.341h-.012z" transform="translate(117.734 8.675)"/>
                            </g>
                        </g>
                    </g>
                </g>
            </g>
        </g>
    </g>
</svg>
